# xmcd
#
# Track frame offsets:
#	150
#	33951
#	56622
#	74446
#	115742
#	146631
#	159715
#	192365
#	212468
#	242286
#	272856
#	295773
#	318884
#	330467
#
# Disc length: 4626 seconds
#
# Revision: 2
# Processed by: cddbd v1.5.2PL0 Copyright (c) Steve Scherf et al.
# Submitted via: audiograbber 1.83.01
#
DISCID=c912100e
DTITLE=John Mayall - So Many Roads
DYEAR=1900
DGENRE=Blues
TTITLE0=Television Eye
TTITLE1=Memories
TTITLE2=Nobody Cares
TTITLE3=Good Time Boogie
TTITLE4=Got To Be This Way
TTITLE5=Mess Around
TTITLE6=Country Road
TTITLE7=Moving On
TTITLE8=Things Go Wrong
TTITLE9=High Pressure Living
TTITLE10=Driving 'Til The Break Of Day
TTITLE11=Burning Sun
TTITLE12=Little Kitten
TTITLE13=Gasoline Blues
EXTD=
EXTT0=
EXTT1=
EXTT2=
EXTT3=
EXTT4=
EXTT5=
EXTT6=
EXTT7=
EXTT8=
EXTT9=
EXTT10=
EXTT11=
EXTT12=
EXTT13=
PLAYORDER=
